<svg width="129" height="91" viewBox="0 0 129 91" fill="none" xmlns="http://www.w3.org/2000/svg">
<path d="M12.9 13C12.9 5.82969 18.6848 0 25.8 0H103.2C110.315 0 116.1 5.82969 116.1 13V65H103.2V13H25.8V65H12.9V13ZM0 75.4C0 73.2469 1.73344 71.5 3.87 71.5H125.13C127.267 71.5 129 73.2469 129 75.4C129 84.0125 122.066 91 113.52 91H15.48C6.93375 91 0 84.0125 0 75.4ZM58.05 26C58.05 24.2125 59.5012 22.75 61.275 22.75H67.725C69.4987 22.75 70.95 24.2125 70.95 26V35.75H80.625C82.3988 35.75 83.85 37.2125 83.85 39V45.5C83.85 47.2875 82.3988 48.75 80.625 48.75H70.95V58.5C70.95 60.2875 69.4987 61.75 67.725 61.75H61.275C59.5012 61.75 58.05 60.2875 58.05 58.5V48.75H48.375C46.6012 48.75 45.15 47.2875 45.15 45.5V39C45.15 37.2125 46.6012 35.75 48.375 35.75H58.05V26Z" fill="#7B732D"/>
</svg>
