<svg width="126" height="122" viewBox="0 0 126 122" fill="none" xmlns="http://www.w3.org/2000/svg">
<path d="M26.2583 5.20941C27.5903 9.21254 25.4259 13.5254 21.4538 14.8598L15.2222 16.9328V45.7411C15.2222 58.37 25.4497 68.6161 38.0556 68.6161C50.6615 68.6161 60.8889 58.37 60.8889 45.7411V16.9328L54.6811 14.8598C50.6852 13.5254 48.5446 9.21254 49.8766 5.20941C51.2085 1.20629 55.5135 -0.938242 59.5094 0.396133L65.7172 2.46918C71.925 4.54223 76.1111 10.3563 76.1111 16.9328V45.7411C76.1111 64.1364 63.1246 79.4817 45.8332 83.0797C47.3316 96.3997 58.6056 106.741 72.3055 106.741C87.0283 106.741 98.9444 94.8032 98.9444 80.0536V63.2071C92.2134 60.2762 87.5278 53.5567 87.5278 45.7411C87.5278 35.209 96.0427 26.6786 106.556 26.6786C117.068 26.6786 125.583 35.209 125.583 45.7411C125.583 53.5567 120.898 60.2762 114.167 63.2071V80.0536C114.167 103.214 95.4243 121.991 72.3055 121.991C50.2095 121.991 32.1332 104.859 30.5634 83.1274C13.1292 79.6246 0 64.2317 0 45.7411V16.9328C0 10.3801 4.18611 4.54223 10.4177 2.46918L16.6255 0.396133C20.6214 -0.938242 24.9264 1.23012 26.2583 5.20941ZM106.556 53.3661C108.574 53.3661 110.51 52.5627 111.937 51.1327C113.365 49.7028 114.167 47.7633 114.167 45.7411C114.167 43.7188 113.365 41.7793 111.937 40.3494C110.51 38.9194 108.574 38.1161 106.556 38.1161C104.537 38.1161 102.601 38.9194 101.174 40.3494C99.7463 41.7793 98.9444 43.7188 98.9444 45.7411C98.9444 47.7633 99.7463 49.7028 101.174 51.1327C102.601 52.5627 104.537 53.3661 106.556 53.3661Z" fill="#7B732D"/>
</svg>
