<svg width="118" height="118" viewBox="0 0 118 118" fill="none" xmlns="http://www.w3.org/2000/svg">
<path d="M59 59C50.8875 59 43.9427 56.1115 38.1656 50.3344C32.3885 44.5573 29.5 37.6125 29.5 29.5C29.5 21.3875 32.3885 14.4427 38.1656 8.66563C43.9427 2.88854 50.8875 0 59 0C67.1125 0 74.0573 2.88854 79.8344 8.66563C85.6115 14.4427 88.5 21.3875 88.5 29.5C88.5 37.6125 85.6115 44.5573 79.8344 50.3344C74.0573 56.1115 67.1125 59 59 59ZM0 118V97.35C0 93.1708 1.07552 89.3297 3.22656 85.8266C5.3776 82.3234 8.23542 79.65 11.8 77.8063C19.4208 73.9958 27.1646 71.138 35.0312 69.2328C42.8979 67.3276 50.8875 66.375 59 66.375C67.1125 66.375 75.1021 67.3276 82.9688 69.2328C90.8354 71.138 98.5792 73.9958 106.2 77.8063C109.765 79.65 112.622 82.3234 114.773 85.8266C116.924 89.3297 118 93.1708 118 97.35V118H0ZM14.75 103.25H103.25V97.35C103.25 95.9979 102.912 94.7688 102.236 93.6625C101.56 92.5563 100.669 91.6958 99.5625 91.0813C92.925 87.7625 86.226 85.2734 79.4656 83.6141C72.7052 81.9547 65.8833 81.125 59 81.125C52.1167 81.125 45.2948 81.9547 38.5344 83.6141C31.774 85.2734 25.075 87.7625 18.4375 91.0813C17.3313 91.6958 16.4401 92.5563 15.7641 93.6625C15.088 94.7688 14.75 95.9979 14.75 97.35V103.25ZM59 44.25C63.0563 44.25 66.5286 42.8057 69.4172 39.9172C72.3057 37.0286 73.75 33.5563 73.75 29.5C73.75 25.4438 72.3057 21.9714 69.4172 19.0828C66.5286 16.1943 63.0563 14.75 59 14.75C54.9438 14.75 51.4714 16.1943 48.5828 19.0828C45.6943 21.9714 44.25 25.4438 44.25 29.5C44.25 33.5563 45.6943 37.0286 48.5828 39.9172C51.4714 42.8057 54.9438 44.25 59 44.25Z" fill="#733636"/>
</svg>
